# xmcd CD database file
#
# Track frame offsets:
#	150
#	17445
#	30650
#	44500
#	62508
#	74485
#	91555
#	104840
#	118063
#	136665
#	146058
#	161708
#
# Disc length: 2405 seconds
#
# Revision: 3
# Processed by: cddbd v1.5.1PL0 Copyright (c) Steve Scherf et al.
# Submitted via: CDex 1.51
#
DISCID=a309630c
DTITLE=C.W. McCall - Greatest Hits
DYEAR=1993
DGENRE=Country
TTITLE0=Convoy
TTITLE1=The Silverton
TTITLE2=Four Wheel Drive
TTITLE3=Wolf Creek Pass
TTITLE4=Classified
TTITLE5=There Won't Be No Country Music (There Won't Be No Rock 'N' Roll)
TTITLE6=Old Home Filler-Up An' Keep On A-Truckin' Cafe
TTITLE7=Crispy Critters
TTITLE8=Round The World With The Rubber Duck
TTITLE9=Black Bear Road
TTITLE10=Roses For Mama
TTITLE11=Aurora Borealis
EXTD=YEAR: 1993
EXTT0=
EXTT1=
EXTT2=
EXTT3=
EXTT4=
EXTT5=
EXTT6=
EXTT7=
EXTT8=
EXTT9=
EXTT10=
EXTT11=
PLAYORDER=
